# xmcd
#
# Track frame offsets:
#	150
#	14671
#	30314
#	47418
#	58978
#	72113
#	87422
#	104068
#	118867
#	136785
#	148077
#	158696
#
# Disc length: 2291 seconds
#
# Revision: 1
# Processed by: cddbd v1.5.2PL0 Copyright (c) Steve Scherf et al.
# Submitted via: audiograbber 1.83.01
#
DISCID=a708f10c
DTITLE=Tha Kwano-Moto Band - Ruagre
DYEAR=2001
DGENRE=Ethnic-Rock
TTITLE0=Rugare
TTITLE1=Kwira Mungoro (Get into the cart)
TTITLE2=Umgido Wamabhiza (The danse of the horses)
TTITLE3=Skokiana
TTITLE4=Rugare 2
TTITLE5=Intandane (Orphans)
TTITLE6=Lobengula
TTITLE7=Odoli (Puppets)
TTITLE8=Ranchera
TTITLE9=Gweru
TTITLE10=Otsotsi (or Alltsotsi)
TTITLE11=Urumbo (Poverty)
EXTD=
EXTT0=
EXTT1=
EXTT2=
EXTT3=
EXTT4=
EXTT5=
EXTT6=
EXTT7=
EXTT8=
EXTT9=
EXTT10=
EXTT11=
PLAYORDER=
